<svg width="128" height="128" viewBox="0 0 128 128" xmlns="http://www.w3.org/2000/svg">
  <!-- Cloud shape -->
  <path d="M98.5 55.5C98.5 41.4 87.1 30 73 30c-11.3 0-20.9 7.3-24 17.6C46.6 46.2 44.4 45.5 42 45.5c-10.2 0-18.5 8.3-18.5 18.5 0 1.5.2 2.9.6 4.3C17.6 71.4 13.5 77.2 13.5 84c0 11 9 20 20 20h65c11 0 20-9 20-20 0-9.8-7-18-16.3-19.6.5-2.6.8-5.3.8-8.1z" fill="#ffffff" stroke="#333333" stroke-width="4" stroke-linejoin="round"/>
  <!-- Eyes -->
  <circle cx="48" cy="75" r="4" fill="#333333"/>
  <circle cx="80" cy="75" r="4" fill="#333333"/>
  <!-- Smile -->
  <path d="M58 85q6 6 12 0" stroke="#333333" stroke-width="4" fill="none" stroke-linecap="round"/>
</svg>